<?xml version="1.0" encoding="UTF-8" standalone="no"?>
<score-partwise>
<work>
<work-title/>
</work>
<identification>
<encoding>
<software>TuxGuitar</software>
</encoding>
<creator type="composer"/>
</identification>
<part-list>
<score-part id="P1">
<part-name/>
<score-instrument id="P1-I1">
<instrument-name>#1</instrument-name>
</score-instrument>
<midi-instrument id="P1-I1">
<midi-channel>1</midi-channel>
<midi-program>1</midi-program>
</midi-instrument>
</score-part>
</part-list>
<part id="P1">
<measure number="1">
<attributes>
<divisions>960</divisions>
<key>
<fifths>0</fifths>
<mode>major</mode>
</key>
<clef>
<sign>G</sign>
<line>2</line>
</clef>
<time>
<beats>6</beats>
<beat-type>4</beat-type>
</time>
<staff-details>
<staff-lines>7</staff-lines>
<staff-tuning line="1">
<tuning-step>B</tuning-step>
<tuning-octave>2</tuning-octave>
</staff-tuning>
<staff-tuning line="2">
<tuning-step>E</tuning-step>
<tuning-octave>3</tuning-octave>
</staff-tuning>
<staff-tuning line="3">
<tuning-step>A</tuning-step>
<tuning-octave>3</tuning-octave>
</staff-tuning>
<staff-tuning line="4">
<tuning-step>D</tuning-step>
<tuning-octave>4</tuning-octave>
</staff-tuning>
<staff-tuning line="5">
<tuning-step>G</tuning-step>
<tuning-octave>4</tuning-octave>
</staff-tuning>
<staff-tuning line="6">
<tuning-step>B</tuning-step>
<tuning-octave>4</tuning-octave>
</staff-tuning>
<staff-tuning line="7">
<tuning-step>E</tuning-step>
<tuning-octave>5</tuning-octave>
</staff-tuning>
</staff-details>
</attributes>
<direction placement="above">
<sound tempo="73"/>
</direction>
<note>
<pitch>
<step>F</step>
<octave>3</octave>
</pitch>
<notations>
<technical>
<fret>1</fret>
<string>6</string>
</technical>
</notations>
<voice>1</voice>
<duration>240</duration>
<type>16th</type>
</note>
<note>
<pitch>
<step>F</step>
<octave>4</octave>
</pitch>
<notations>
<technical>
<fret>3</fret>
<string>4</string>
</technical>
</notations>
<voice>1</voice>
<duration>120</duration>
<type>32nd</type>
</note>
<note>
<pitch>
<step>A</step>
<octave>4</octave>
</pitch>
<notations>
<technical>
<fret>2</fret>
<string>3</string>
</technical>
</notations>
<voice>1</voice>
<duration>120</duration>
<type>32nd</type>
</note>
<note>
<pitch>
<step>D</step>
<octave>5</octave>
</pitch>
<notations>
<technical>
<fret>3</fret>
<string>2</string>
</technical>
</notations>
<voice>1</voice>
<duration>120</duration>
<type>32nd</type>
</note>
<note>
<pitch>
<step>E</step>
<octave>5</octave>
</pitch>
<notations>
<technical>
<fret>0</fret>
<string>1</string>
</technical>
</notations>
<voice>1</voice>
<duration>1280</duration>
<type>half</type>
<time-modification>
<actual-notes>3</actual-notes>
<normal-notes>2</normal-notes>
</time-modification>
</note>
<note>
<pitch>
<step>F</step>
<octave>4</octave>
</pitch>
<notations>
<technical>
<fret>3</fret>
<string>4</string>
</technical>
</notations>
<voice>1</voice>
<duration>3840</duration>
<type>whole</type>
</note>
<note>
<pitch>
<step>A</step>
<octave>4</octave>
</pitch>
<notations>
<technical>
<fret>2</fret>
<string>3</string>
</technical>
</notations>
<voice>1</voice>
<duration>3840</duration>
<type>whole</type>
<chord/>
</note>
</measure>
<measure number="2">
<note>
<rest/>
<voice>1</voice>
<duration>90</duration>
<type>64th</type>
<dot/>
</note>
<note>
<pitch>
<step>C</step>
<octave>3</octave>
</pitch>
<notations>
<technical>
<fret>1</fret>
<string>7</string>
</technical>
</notations>
<voice>1</voice>
<duration>240</duration>
<type>16th</type>
</note>
<note>
<pitch>
<step>E</step>
<octave>4</octave>
</pitch>
<notations>
<technical>
<fret>2</fret>
<string>4</string>
</technical>
</notations>
<voice>1</voice>
<duration>120</duration>
<type>32nd</type>
</note>
<note>
<pitch>
<step>G</step>
<octave>4</octave>
</pitch>
<notations>
<technical>
<fret>0</fret>
<string>3</string>
</technical>
</notations>
<voice>1</voice>
<duration>120</duration>
<type>32nd</type>
</note>
<note>
<pitch>
<step>B</step>
<octave>4</octave>
</pitch>
<notations>
<technical>
<fret>0</fret>
<string>2</string>
</technical>
</notations>
<voice>1</voice>
<duration>120</duration>
<type>32nd</type>
</note>
<note>
<pitch>
<step>D</step>
<octave>5</octave>
</pitch>
<notations>
<technical>
<fret>3</fret>
<string>2</string>
</technical>
</notations>
<voice>1</voice>
<duration>120</duration>
<type>32nd</type>
</note>
<note>
<pitch>
<step>E</step>
<octave>5</octave>
</pitch>
<notations>
<technical>
<fret>0</fret>
<string>1</string>
</technical>
</notations>
<voice>1</voice>
<duration>960</duration>
<type>quarter</type>
</note>
<note>
<rest/>
<voice>1</voice>
<duration>160</duration>
<type>16th</type>
<time-modification>
<actual-notes>3</actual-notes>
<normal-notes>2</normal-notes>
</time-modification>
</note>
<note>
<pitch>
<step>G</step>
<octave>4</octave>
</pitch>
<notations>
<technical>
<fret>0</fret>
<string>3</string>
</technical>
</notations>
<voice>1</voice>
<duration>3840</duration>
<type>whole</type>
</note>
<note>
<pitch>
<step>B</step>
<octave>4</octave>
</pitch>
<notations>
<technical>
<fret>0</fret>
<string>2</string>
</technical>
</notations>
<voice>1</voice>
<duration>3840</duration>
<type>whole</type>
<chord/>
</note>
</measure>
<measure number="3">
<note>
<pitch>
<step>F</step>
<octave>3</octave>
</pitch>
<notations>
<technical>
<fret>1</fret>
<string>6</string>
</technical>
</notations>
<voice>1</voice>
<duration>480</duration>
<type>eighth</type>
</note>
<note>
<pitch>
<step>C</step>
<octave>4</octave>
</pitch>
<notations>
<technical>
<fret>3</fret>
<string>5</string>
</technical>
</notations>
<voice>1</voice>
<duration>480</duration>
<type>eighth</type>
</note>
<note>
<pitch>
<step>F</step>
<octave>4</octave>
</pitch>
<notations>
<technical>
<fret>3</fret>
<string>4</string>
</technical>
</notations>
<voice>1</voice>
<duration>320</duration>
<type>eighth</type>
<time-modification>
<actual-notes>3</actual-notes>
<normal-notes>2</normal-notes>
</time-modification>
</note>
<note>
<pitch>
<step>A</step>
<octave>4</octave>
</pitch>
<notations>
<technical>
<fret>2</fret>
<string>3</string>
</technical>
</notations>
<voice>1</voice>
<duration>320</duration>
<type>eighth</type>
<time-modification>
<actual-notes>3</actual-notes>
<normal-notes>2</normal-notes>
</time-modification>
</note>
<note>
<pitch>
<step>D</step>
<octave>5</octave>
</pitch>
<notations>
<technical>
<fret>3</fret>
<string>2</string>
</technical>
</notations>
<voice>1</voice>
<duration>160</duration>
<type>16th</type>
<time-modification>
<actual-notes>3</actual-notes>
<normal-notes>2</normal-notes>
</time-modification>
</note>
<note>
<pitch>
<step>A</step>
<octave>4</octave>
</pitch>
<notations>
<technical>
<fret>2</fret>
<string>3</string>
</technical>
</notations>
<voice>1</voice>
<duration>160</duration>
<type>16th</type>
<time-modification>
<actual-notes>3</actual-notes>
<normal-notes>2</normal-notes>
</time-modification>
</note>
<note>
<pitch>
<step>F</step>
<octave>4</octave>
</pitch>
<notations>
<technical>
<fret>3</fret>
<string>4</string>
</technical>
</notations>
<voice>1</voice>
<duration>160</duration>
<type>16th</type>
<time-modification>
<actual-notes>3</actual-notes>
<normal-notes>2</normal-notes>
</time-modification>
<chord/>
</note>
<note>
<pitch>
<step>E</step>
<octave>5</octave>
</pitch>
<notations>
<technical>
<fret>0</fret>
<string>1</string>
</technical>
</notations>
<voice>1</voice>
<duration>3840</duration>
<type>whole</type>
</note>
</measure>
<measure number="4">
<note>
<pitch>
<step>C</step>
<octave>3</octave>
</pitch>
<notations>
<technical>
<fret>1</fret>
<string>7</string>
</technical>
</notations>
<voice>1</voice>
<duration>480</duration>
<type>eighth</type>
</note>
<note>
<pitch>
<step>G</step>
<octave>3</octave>
</pitch>
<notations>
<technical>
<fret>3</fret>
<string>6</string>
</technical>
</notations>
<voice>1</voice>
<duration>480</duration>
<type>eighth</type>
</note>
<note>
<pitch>
<step>E</step>
<octave>4</octave>
</pitch>
<notations>
<technical>
<fret>2</fret>
<string>4</string>
</technical>
</notations>
<voice>1</voice>
<duration>360</duration>
<type>16th</type>
<dot/>
</note>
<note>
<pitch>
<step>G</step>
<octave>4</octave>
</pitch>
<notations>
<technical>
<fret>0</fret>
<string>3</string>
</technical>
</notations>
<voice>1</voice>
<duration>240</duration>
<type>16th</type>
</note>
<note>
<pitch>
<step>D</step>
<octave>5</octave>
</pitch>
<notations>
<technical>
<fret>3</fret>
<string>2</string>
</technical>
</notations>
<voice>1</voice>
<duration>160</duration>
<type>16th</type>
<time-modification>
<actual-notes>3</actual-notes>
<normal-notes>2</normal-notes>
</time-modification>
</note>
<note>
<pitch>
<step>B</step>
<octave>4</octave>
</pitch>
<notations>
<technical>
<fret>0</fret>
<string>2</string>
</technical>
</notations>
<voice>1</voice>
<duration>160</duration>
<type>16th</type>
<time-modification>
<actual-notes>3</actual-notes>
<normal-notes>2</normal-notes>
</time-modification>
</note>
<note>
<pitch>
<step>G</step>
<octave>4</octave>
</pitch>
<notations>
<technical>
<fret>0</fret>
<string>3</string>
</technical>
</notations>
<voice>1</voice>
<duration>160</duration>
<type>16th</type>
<time-modification>
<actual-notes>3</actual-notes>
<normal-notes>2</normal-notes>
</time-modification>
<chord/>
</note>
<note>
<pitch>
<step>D</step>
<octave>6</octave>
</pitch>
<notations>
<technical>
<fret>10</fret>
<string>1</string>
</technical>
</notations>
<voice>1</voice>
<duration>1920</duration>
<type>half</type>
</note>
<note>
<pitch>
<step>E</step>
<octave>5</octave>
</pitch>
<notations>
<technical>
<fret>5</fret>
<string>2</string>
</technical>
</notations>
<voice>1</voice>
<duration>1920</duration>
<type>half</type>
<chord/>
</note>
<note>
<pitch>
<step>E</step>
<octave>6</octave>
</pitch>
<notations>
<technical>
<fret>12</fret>
<string>1</string>
</technical>
</notations>
<voice>1</voice>
<duration>1920</duration>
<type>half</type>
</note>
</measure>
<measure number="5">
<note>
<pitch>
<step>F</step>
<octave>3</octave>
</pitch>
<notations>
<technical>
<fret>1</fret>
<string>6</string>
</technical>
</notations>
<voice>1</voice>
<duration>480</duration>
<type>eighth</type>
</note>
<note>
<pitch>
<step>D</step>
<octave>7</octave>
</pitch>
<notations>
<technical>
<fret>22</fret>
<string>1</string>
</technical>
</notations>
<voice>1</voice>
<duration>480</duration>
<type>eighth</type>
<chord/>
</note>
<note>
<pitch>
<step>C</step>
<octave>4</octave>
</pitch>
<notations>
<technical>
<fret>3</fret>
<string>5</string>
</technical>
</notations>
<voice>1</voice>
<duration>480</duration>
<type>eighth</type>
</note>
<note>
<pitch>
<step>F</step>
<octave>4</octave>
</pitch>
<notations>
<technical>
<fret>3</fret>
<string>4</string>
</technical>
</notations>
<voice>1</voice>
<duration>320</duration>
<type>eighth</type>
<time-modification>
<actual-notes>3</actual-notes>
<normal-notes>2</normal-notes>
</time-modification>
</note>
<note>
<pitch>
<step>A</step>
<octave>4</octave>
</pitch>
<notations>
<technical>
<fret>2</fret>
<string>3</string>
</technical>
</notations>
<voice>1</voice>
<duration>320</duration>
<type>eighth</type>
<time-modification>
<actual-notes>3</actual-notes>
<normal-notes>2</normal-notes>
</time-modification>
</note>
<note>
<pitch>
<step>D</step>
<octave>5</octave>
</pitch>
<notations>
<technical>
<fret>3</fret>
<string>2</string>
</technical>
</notations>
<voice>1</voice>
<duration>160</duration>
<type>16th</type>
<time-modification>
<actual-notes>3</actual-notes>
<normal-notes>2</normal-notes>
</time-modification>
</note>
<note>
<pitch>
<step>A</step>
<octave>4</octave>
</pitch>
<notations>
<technical>
<fret>2</fret>
<string>3</string>
</technical>
</notations>
<voice>1</voice>
<duration>160</duration>
<type>16th</type>
<time-modification>
<actual-notes>3</actual-notes>
<normal-notes>2</normal-notes>
</time-modification>
</note>
<note>
<pitch>
<step>F</step>
<octave>4</octave>
</pitch>
<notations>
<technical>
<fret>3</fret>
<string>4</string>
</technical>
</notations>
<voice>1</voice>
<duration>160</duration>
<type>16th</type>
<time-modification>
<actual-notes>3</actual-notes>
<normal-notes>2</normal-notes>
</time-modification>
<chord/>
</note>
<note>
<pitch>
<step>E</step>
<octave>5</octave>
</pitch>
<notations>
<technical>
<fret>0</fret>
<string>1</string>
</technical>
</notations>
<voice>1</voice>
<duration>320</duration>
<type>eighth</type>
<time-modification>
<actual-notes>3</actual-notes>
<normal-notes>2</normal-notes>
</time-modification>
</note>
<note>
<pitch>
<step>C</step>
<octave>7</octave>
<alter>1</alter>
</pitch>
<notations>
<technical>
<fret>21</fret>
<string>1</string>
</technical>
</notations>
<voice>1</voice>
<duration>320</duration>
<type>eighth</type>
<time-modification>
<actual-notes>3</actual-notes>
<normal-notes>2</normal-notes>
</time-modification>
</note>
<note>
<pitch>
<step>C</step>
<octave>7</octave>
</pitch>
<notations>
<technical>
<fret>20</fret>
<string>1</string>
</technical>
</notations>
<voice>1</voice>
<duration>320</duration>
<type>eighth</type>
<time-modification>
<actual-notes>3</actual-notes>
<normal-notes>2</normal-notes>
</time-modification>
</note>
<note>
<pitch>
<step>B</step>
<octave>6</octave>
</pitch>
<notations>
<technical>
<fret>19</fret>
<string>1</string>
</technical>
</notations>
<voice>1</voice>
<duration>2880</duration>
<type>half</type>
<dot/>
</note>
</measure>
<measure number="6">
<note>
<pitch>
<step>C</step>
<octave>3</octave>
</pitch>
<notations>
<technical>
<fret>1</fret>
<string>7</string>
</technical>
</notations>
<voice>1</voice>
<duration>480</duration>
<type>eighth</type>
</note>
<note>
<pitch>
<step>G</step>
<octave>3</octave>
</pitch>
<notations>
<technical>
<fret>3</fret>
<string>6</string>
</technical>
</notations>
<voice>1</voice>
<duration>480</duration>
<type>eighth</type>
</note>
<note>
<pitch>
<step>E</step>
<octave>4</octave>
</pitch>
<notations>
<technical>
<fret>2</fret>
<string>4</string>
</technical>
</notations>
<voice>1</voice>
<duration>360</duration>
<type>16th</type>
<dot/>
</note>
<note>
<pitch>
<step>G</step>
<octave>4</octave>
</pitch>
<notations>
<technical>
<fret>0</fret>
<string>3</string>
</technical>
</notations>
<voice>1</voice>
<duration>240</duration>
<type>16th</type>
</note>
<note>
<pitch>
<step>D</step>
<octave>5</octave>
</pitch>
<notations>
<technical>
<fret>3</fret>
<string>2</string>
</technical>
</notations>
<voice>1</voice>
<duration>160</duration>
<type>16th</type>
<time-modification>
<actual-notes>3</actual-notes>
<normal-notes>2</normal-notes>
</time-modification>
</note>
<note>
<pitch>
<step>B</step>
<octave>4</octave>
</pitch>
<notations>
<technical>
<fret>0</fret>
<string>2</string>
</technical>
</notations>
<voice>1</voice>
<duration>160</duration>
<type>16th</type>
<time-modification>
<actual-notes>3</actual-notes>
<normal-notes>2</normal-notes>
</time-modification>
</note>
<note>
<pitch>
<step>G</step>
<octave>4</octave>
</pitch>
<notations>
<technical>
<fret>0</fret>
<string>3</string>
</technical>
</notations>
<voice>1</voice>
<duration>160</duration>
<type>16th</type>
<time-modification>
<actual-notes>3</actual-notes>
<normal-notes>2</normal-notes>
</time-modification>
<chord/>
</note>
<note>
<pitch>
<step>A</step>
<octave>6</octave>
</pitch>
<notations>
<technical>
<fret>17</fret>
<string>1</string>
</technical>
</notations>
<voice>1</voice>
<duration>480</duration>
<type>eighth</type>
</note>
<note>
<pitch>
<step>E</step>
<octave>5</octave>
</pitch>
<notations>
<technical>
<fret>5</fret>
<string>2</string>
</technical>
</notations>
<voice>1</voice>
<duration>480</duration>
<type>eighth</type>
<chord/>
</note>
<note>
<pitch>
<step>G</step>
<octave>6</octave>
</pitch>
<notations>
<technical>
<fret>15</fret>
<string>1</string>
</technical>
</notations>
<voice>1</voice>
<duration>1440</duration>
<type>quarter</type>
<dot/>
</note>
<note>
<pitch>
<step>D</step>
<octave>6</octave>
</pitch>
<notations>
<technical>
<fret>10</fret>
<string>1</string>
</technical>
</notations>
<voice>1</voice>
<duration>960</duration>
<type>quarter</type>
</note>
<note>
<pitch>
<step>E</step>
<octave>6</octave>
</pitch>
<notations>
<technical>
<fret>12</fret>
<string>1</string>
</technical>
</notations>
<voice>1</voice>
<duration>960</duration>
<type>quarter</type>
</note>
</measure>
<measure number="7">
<note>
<pitch>
<step>F</step>
<octave>3</octave>
</pitch>
<notations>
<technical>
<fret>1</fret>
<string>6</string>
</technical>
</notations>
<voice>1</voice>
<duration>480</duration>
<type>eighth</type>
</note>
<note>
<pitch>
<step>D</step>
<octave>7</octave>
</pitch>
<notations>
<technical>
<fret>22</fret>
<string>1</string>
</technical>
</notations>
<voice>1</voice>
<duration>480</duration>
<type>eighth</type>
<chord/>
</note>
<note>
<pitch>
<step>C</step>
<octave>4</octave>
</pitch>
<notations>
<technical>
<fret>3</fret>
<string>5</string>
</technical>
</notations>
<voice>1</voice>
<duration>480</duration>
<type>eighth</type>
</note>
<note>
<pitch>
<step>F</step>
<octave>4</octave>
</pitch>
<notations>
<technical>
<fret>3</fret>
<string>4</string>
</technical>
</notations>
<voice>1</voice>
<duration>320</duration>
<type>eighth</type>
<time-modification>
<actual-notes>3</actual-notes>
<normal-notes>2</normal-notes>
</time-modification>
</note>
<note>
<pitch>
<step>A</step>
<octave>4</octave>
</pitch>
<notations>
<technical>
<fret>2</fret>
<string>3</string>
</technical>
</notations>
<voice>1</voice>
<duration>320</duration>
<type>eighth</type>
<time-modification>
<actual-notes>3</actual-notes>
<normal-notes>2</normal-notes>
</time-modification>
</note>
<note>
<pitch>
<step>D</step>
<octave>5</octave>
</pitch>
<notations>
<technical>
<fret>3</fret>
<string>2</string>
</technical>
</notations>
<voice>1</voice>
<duration>160</duration>
<type>16th</type>
<time-modification>
<actual-notes>3</actual-notes>
<normal-notes>2</normal-notes>
</time-modification>
</note>
<note>
<pitch>
<step>A</step>
<octave>4</octave>
</pitch>
<notations>
<technical>
<fret>2</fret>
<string>3</string>
</technical>
</notations>
<voice>1</voice>
<duration>160</duration>
<type>16th</type>
<time-modification>
<actual-notes>3</actual-notes>
<normal-notes>2</normal-notes>
</time-modification>
</note>
<note>
<pitch>
<step>F</step>
<octave>4</octave>
</pitch>
<notations>
<technical>
<fret>3</fret>
<string>4</string>
</technical>
</notations>
<voice>1</voice>
<duration>160</duration>
<type>16th</type>
<time-modification>
<actual-notes>3</actual-notes>
<normal-notes>2</normal-notes>
</time-modification>
<chord/>
</note>
<note>
<pitch>
<step>E</step>
<octave>5</octave>
</pitch>
<notations>
<technical>
<fret>0</fret>
<string>1</string>
</technical>
</notations>
<voice>1</voice>
<duration>320</duration>
<type>eighth</type>
<time-modification>
<actual-notes>3</actual-notes>
<normal-notes>2</normal-notes>
</time-modification>
</note>
<note>
<pitch>
<step>C</step>
<octave>7</octave>
<alter>1</alter>
</pitch>
<notations>
<technical>
<fret>21</fret>
<string>1</string>
</technical>
</notations>
<voice>1</voice>
<duration>320</duration>
<type>eighth</type>
<time-modification>
<actual-notes>3</actual-notes>
<normal-notes>2</normal-notes>
</time-modification>
</note>
<note>
<pitch>
<step>C</step>
<octave>7</octave>
</pitch>
<notations>
<technical>
<fret>20</fret>
<string>1</string>
</technical>
</notations>
<voice>1</voice>
<duration>320</duration>
<type>eighth</type>
<time-modification>
<actual-notes>3</actual-notes>
<normal-notes>2</normal-notes>
</time-modification>
</note>
<note>
<pitch>
<step>B</step>
<octave>6</octave>
</pitch>
<notations>
<technical>
<fret>19</fret>
<string>1</string>
</technical>
</notations>
<voice>1</voice>
<duration>1920</duration>
<type>half</type>
</note>
<note>
<rest/>
<voice>1</voice>
<duration>480</duration>
<type>eighth</type>
</note>
<note>
<pitch>
<step>C</step>
<octave>7</octave>
</pitch>
<notations>
<technical>
<fret>20</fret>
<string>1</string>
</technical>
</notations>
<voice>1</voice>
<duration>480</duration>
<type>eighth</type>
</note>
</measure>
<measure number="8">
<note>
<pitch>
<step>C</step>
<octave>3</octave>
</pitch>
<notations>
<technical>
<fret>1</fret>
<string>7</string>
</technical>
</notations>
<voice>1</voice>
<duration>480</duration>
<type>eighth</type>
</note>
<note>
<pitch>
<step>B</step>
<octave>6</octave>
</pitch>
<notations>
<technical>
<fret>19</fret>
<string>1</string>
</technical>
</notations>
<voice>1</voice>
<duration>480</duration>
<type>eighth</type>
<chord/>
</note>
<note>
<pitch>
<step>G</step>
<octave>3</octave>
</pitch>
<notations>
<technical>
<fret>3</fret>
<string>6</string>
</technical>
</notations>
<voice>1</voice>
<duration>480</duration>
<type>eighth</type>
</note>
<note>
<pitch>
<step>E</step>
<octave>4</octave>
</pitch>
<notations>
<technical>
<fret>2</fret>
<string>4</string>
</technical>
</notations>
<voice>1</voice>
<duration>360</duration>
<type>16th</type>
<dot/>
</note>
<note>
<pitch>
<step>G</step>
<octave>4</octave>
</pitch>
<notations>
<technical>
<fret>0</fret>
<string>3</string>
</technical>
</notations>
<voice>1</voice>
<duration>120</duration>
<type>32nd</type>
</note>
<note>
<pitch>
<step>A</step>
<octave>6</octave>
</pitch>
<notations>
<technical>
<fret>17</fret>
<string>1</string>
</technical>
</notations>
<voice>1</voice>
<duration>160</duration>
<type>16th</type>
<time-modification>
<actual-notes>3</actual-notes>
<normal-notes>2</normal-notes>
</time-modification>
</note>
<note>
<pitch>
<step>D</step>
<octave>5</octave>
</pitch>
<notations>
<technical>
<fret>3</fret>
<string>2</string>
</technical>
</notations>
<voice>1</voice>
<duration>160</duration>
<type>16th</type>
<time-modification>
<actual-notes>3</actual-notes>
<normal-notes>2</normal-notes>
</time-modification>
</note>
<note>
<pitch>
<step>B</step>
<octave>4</octave>
</pitch>
<notations>
<technical>
<fret>0</fret>
<string>2</string>
</technical>
</notations>
<voice>1</voice>
<duration>160</duration>
<type>16th</type>
<time-modification>
<actual-notes>3</actual-notes>
<normal-notes>2</normal-notes>
</time-modification>
</note>
<note>
<pitch>
<step>G</step>
<octave>4</octave>
</pitch>
<notations>
<technical>
<fret>0</fret>
<string>3</string>
</technical>
</notations>
<voice>1</voice>
<duration>160</duration>
<type>16th</type>
<time-modification>
<actual-notes>3</actual-notes>
<normal-notes>2</normal-notes>
</time-modification>
<chord/>
</note>
<note>
<pitch>
<step>G</step>
<octave>6</octave>
</pitch>
<notations>
<technical>
<fret>15</fret>
<string>1</string>
</technical>
</notations>
<voice>1</voice>
<duration>1920</duration>
<type>half</type>
</note>
<note>
<pitch>
<step>E</step>
<octave>5</octave>
</pitch>
<notations>
<technical>
<fret>5</fret>
<string>2</string>
</technical>
</notations>
<voice>1</voice>
<duration>1920</duration>
<type>half</type>
<chord/>
</note>
<note>
<pitch>
<step>D</step>
<octave>6</octave>
</pitch>
<notations>
<technical>
<fret>10</fret>
<string>1</string>
</technical>
</notations>
<voice>1</voice>
<duration>960</duration>
<type>quarter</type>
</note>
<note>
<pitch>
<step>E</step>
<octave>6</octave>
</pitch>
<notations>
<technical>
<fret>12</fret>
<string>1</string>
</technical>
</notations>
<voice>1</voice>
<duration>960</duration>
<type>quarter</type>
</note>
</measure>
<measure number="9">
<note>
<pitch>
<step>F</step>
<octave>3</octave>
</pitch>
<notations>
<technical>
<fret>1</fret>
<string>6</string>
</technical>
</notations>
<voice>1</voice>
<duration>480</duration>
<type>eighth</type>
</note>
<note>
<pitch>
<step>D</step>
<octave>7</octave>
</pitch>
<notations>
<technical>
<fret>22</fret>
<string>1</string>
</technical>
</notations>
<voice>1</voice>
<duration>480</duration>
<type>eighth</type>
<chord/>
</note>
<note>
<pitch>
<step>C</step>
<octave>4</octave>
</pitch>
<notations>
<technical>
<fret>3</fret>
<string>5</string>
</technical>
</notations>
<voice>1</voice>
<duration>480</duration>
<type>eighth</type>
</note>
<note>
<pitch>
<step>F</step>
<octave>4</octave>
</pitch>
<notations>
<technical>
<fret>3</fret>
<string>4</string>
</technical>
</notations>
<voice>1</voice>
<duration>320</duration>
<type>eighth</type>
<time-modification>
<actual-notes>3</actual-notes>
<normal-notes>2</normal-notes>
</time-modification>
</note>
<note>
<pitch>
<step>A</step>
<octave>4</octave>
</pitch>
<notations>
<technical>
<fret>2</fret>
<string>3</string>
</technical>
</notations>
<voice>1</voice>
<duration>320</duration>
<type>eighth</type>
<time-modification>
<actual-notes>3</actual-notes>
<normal-notes>2</normal-notes>
</time-modification>
</note>
<note>
<pitch>
<step>D</step>
<octave>5</octave>
</pitch>
<notations>
<technical>
<fret>3</fret>
<string>2</string>
</technical>
</notations>
<voice>1</voice>
<duration>160</duration>
<type>16th</type>
<time-modification>
<actual-notes>3</actual-notes>
<normal-notes>2</normal-notes>
</time-modification>
</note>
<note>
<pitch>
<step>A</step>
<octave>4</octave>
</pitch>
<notations>
<technical>
<fret>2</fret>
<string>3</string>
</technical>
</notations>
<voice>1</voice>
<duration>160</duration>
<type>16th</type>
<time-modification>
<actual-notes>3</actual-notes>
<normal-notes>2</normal-notes>
</time-modification>
</note>
<note>
<pitch>
<step>F</step>
<octave>4</octave>
</pitch>
<notations>
<technical>
<fret>3</fret>
<string>4</string>
</technical>
</notations>
<voice>1</voice>
<duration>160</duration>
<type>16th</type>
<time-modification>
<actual-notes>3</actual-notes>
<normal-notes>2</normal-notes>
</time-modification>
<chord/>
</note>
<note>
<pitch>
<step>E</step>
<octave>5</octave>
</pitch>
<notations>
<technical>
<fret>0</fret>
<string>1</string>
</technical>
</notations>
<voice>1</voice>
<duration>320</duration>
<type>eighth</type>
<time-modification>
<actual-notes>3</actual-notes>
<normal-notes>2</normal-notes>
</time-modification>
</note>
<note>
<pitch>
<step>C</step>
<octave>7</octave>
<alter>1</alter>
</pitch>
<notations>
<technical>
<fret>21</fret>
<string>1</string>
</technical>
</notations>
<voice>1</voice>
<duration>320</duration>
<type>eighth</type>
<time-modification>
<actual-notes>3</actual-notes>
<normal-notes>2</normal-notes>
</time-modification>
</note>
<note>
<pitch>
<step>C</step>
<octave>7</octave>
</pitch>
<notations>
<technical>
<fret>20</fret>
<string>1</string>
</technical>
</notations>
<voice>1</voice>
<duration>320</duration>
<type>eighth</type>
<time-modification>
<actual-notes>3</actual-notes>
<normal-notes>2</normal-notes>
</time-modification>
</note>
<note>
<pitch>
<step>B</step>
<octave>6</octave>
</pitch>
<notations>
<technical>
<fret>19</fret>
<string>1</string>
</technical>
</notations>
<voice>1</voice>
<duration>2880</duration>
<type>half</type>
<dot/>
</note>
</measure>
<measure number="10">
<note>
<pitch>
<step>C</step>
<octave>3</octave>
</pitch>
<notations>
<technical>
<fret>1</fret>
<string>7</string>
</technical>
</notations>
<voice>1</voice>
<duration>480</duration>
<type>eighth</type>
</note>
<note>
<pitch>
<step>G</step>
<octave>3</octave>
</pitch>
<notations>
<technical>
<fret>3</fret>
<string>6</string>
</technical>
</notations>
<voice>1</voice>
<duration>480</duration>
<type>eighth</type>
</note>
<note>
<pitch>
<step>E</step>
<octave>4</octave>
</pitch>
<notations>
<technical>
<fret>2</fret>
<string>4</string>
</technical>
</notations>
<voice>1</voice>
<duration>360</duration>
<type>16th</type>
<dot/>
</note>
<note>
<pitch>
<step>G</step>
<octave>4</octave>
</pitch>
<notations>
<technical>
<fret>0</fret>
<string>3</string>
</technical>
</notations>
<voice>1</voice>
<duration>240</duration>
<type>16th</type>
</note>
<note>
<pitch>
<step>D</step>
<octave>5</octave>
</pitch>
<notations>
<technical>
<fret>3</fret>
<string>2</string>
</technical>
</notations>
<voice>1</voice>
<duration>160</duration>
<type>16th</type>
<time-modification>
<actual-notes>3</actual-notes>
<normal-notes>2</normal-notes>
</time-modification>
</note>
<note>
<pitch>
<step>B</step>
<octave>4</octave>
</pitch>
<notations>
<technical>
<fret>0</fret>
<string>2</string>
</technical>
</notations>
<voice>1</voice>
<duration>160</duration>
<type>16th</type>
<time-modification>
<actual-notes>3</actual-notes>
<normal-notes>2</normal-notes>
</time-modification>
</note>
<note>
<pitch>
<step>G</step>
<octave>4</octave>
</pitch>
<notations>
<technical>
<fret>0</fret>
<string>3</string>
</technical>
</notations>
<voice>1</voice>
<duration>160</duration>
<type>16th</type>
<time-modification>
<actual-notes>3</actual-notes>
<normal-notes>2</normal-notes>
</time-modification>
<chord/>
</note>
<note>
<pitch>
<step>A</step>
<octave>6</octave>
</pitch>
<notations>
<technical>
<fret>17</fret>
<string>1</string>
</technical>
</notations>
<voice>1</voice>
<duration>480</duration>
<type>eighth</type>
</note>
<note>
<pitch>
<step>E</step>
<octave>5</octave>
</pitch>
<notations>
<technical>
<fret>5</fret>
<string>2</string>
</technical>
</notations>
<voice>1</voice>
<duration>480</duration>
<type>eighth</type>
<chord/>
</note>
<note>
<pitch>
<step>G</step>
<octave>6</octave>
</pitch>
<notations>
<technical>
<fret>15</fret>
<string>1</string>
</technical>
</notations>
<voice>1</voice>
<duration>1440</duration>
<type>quarter</type>
<dot/>
</note>
<note>
<pitch>
<step>D</step>
<octave>6</octave>
</pitch>
<notations>
<technical>
<fret>10</fret>
<string>1</string>
</technical>
</notations>
<voice>1</voice>
<duration>960</duration>
<type>quarter</type>
</note>
<note>
<pitch>
<step>E</step>
<octave>6</octave>
</pitch>
<notations>
<technical>
<fret>12</fret>
<string>1</string>
</technical>
</notations>
<voice>1</voice>
<duration>960</duration>
<type>quarter</type>
</note>
</measure>
<measure number="11">
<note>
<pitch>
<step>F</step>
<octave>3</octave>
</pitch>
<notations>
<technical>
<fret>1</fret>
<string>6</string>
</technical>
</notations>
<voice>1</voice>
<duration>480</duration>
<type>eighth</type>
</note>
<note>
<pitch>
<step>D</step>
<octave>7</octave>
</pitch>
<notations>
<technical>
<fret>22</fret>
<string>1</string>
</technical>
</notations>
<voice>1</voice>
<duration>480</duration>
<type>eighth</type>
<chord/>
</note>
<note>
<pitch>
<step>C</step>
<octave>4</octave>
</pitch>
<notations>
<technical>
<fret>3</fret>
<string>5</string>
</technical>
</notations>
<voice>1</voice>
<duration>480</duration>
<type>eighth</type>
</note>
<note>
<pitch>
<step>F</step>
<octave>4</octave>
</pitch>
<notations>
<technical>
<fret>3</fret>
<string>4</string>
</technical>
</notations>
<voice>1</voice>
<duration>320</duration>
<type>eighth</type>
<time-modification>
<actual-notes>3</actual-notes>
<normal-notes>2</normal-notes>
</time-modification>
</note>
<note>
<pitch>
<step>A</step>
<octave>4</octave>
</pitch>
<notations>
<technical>
<fret>2</fret>
<string>3</string>
</technical>
</notations>
<voice>1</voice>
<duration>320</duration>
<type>eighth</type>
<time-modification>
<actual-notes>3</actual-notes>
<normal-notes>2</normal-notes>
</time-modification>
</note>
<note>
<pitch>
<step>D</step>
<octave>5</octave>
</pitch>
<notations>
<technical>
<fret>3</fret>
<string>2</string>
</technical>
</notations>
<voice>1</voice>
<duration>160</duration>
<type>16th</type>
<time-modification>
<actual-notes>3</actual-notes>
<normal-notes>2</normal-notes>
</time-modification>
</note>
<note>
<pitch>
<step>A</step>
<octave>4</octave>
</pitch>
<notations>
<technical>
<fret>2</fret>
<string>3</string>
</technical>
</notations>
<voice>1</voice>
<duration>160</duration>
<type>16th</type>
<time-modification>
<actual-notes>3</actual-notes>
<normal-notes>2</normal-notes>
</time-modification>
</note>
<note>
<pitch>
<step>F</step>
<octave>4</octave>
</pitch>
<notations>
<technical>
<fret>3</fret>
<string>4</string>
</technical>
</notations>
<voice>1</voice>
<duration>160</duration>
<type>16th</type>
<time-modification>
<actual-notes>3</actual-notes>
<normal-notes>2</normal-notes>
</time-modification>
<chord/>
</note>
<note>
<pitch>
<step>E</step>
<octave>5</octave>
</pitch>
<notations>
<technical>
<fret>0</fret>
<string>1</string>
</technical>
</notations>
<voice>1</voice>
<duration>320</duration>
<type>eighth</type>
<time-modification>
<actual-notes>3</actual-notes>
<normal-notes>2</normal-notes>
</time-modification>
</note>
<note>
<pitch>
<step>C</step>
<octave>7</octave>
<alter>1</alter>
</pitch>
<notations>
<technical>
<fret>21</fret>
<string>1</string>
</technical>
</notations>
<voice>1</voice>
<duration>320</duration>
<type>eighth</type>
<time-modification>
<actual-notes>3</actual-notes>
<normal-notes>2</normal-notes>
</time-modification>
</note>
<note>
<pitch>
<step>C</step>
<octave>7</octave>
</pitch>
<notations>
<technical>
<fret>20</fret>
<string>1</string>
</technical>
</notations>
<voice>1</voice>
<duration>320</duration>
<type>eighth</type>
<time-modification>
<actual-notes>3</actual-notes>
<normal-notes>2</normal-notes>
</time-modification>
</note>
<note>
<pitch>
<step>B</step>
<octave>6</octave>
</pitch>
<notations>
<technical>
<fret>19</fret>
<string>1</string>
</technical>
</notations>
<voice>1</voice>
<duration>1920</duration>
<type>half</type>
</note>
<note>
<pitch>
<step>E</step>
<octave>7</octave>
</pitch>
<notations>
<technical>
<fret>24</fret>
<string>1</string>
</technical>
</notations>
<voice>1</voice>
<duration>960</duration>
<type>quarter</type>
</note>
</measure>
<measure number="12">
<note>
<pitch>
<step>C</step>
<octave>3</octave>
</pitch>
<notations>
<technical>
<fret>1</fret>
<string>7</string>
</technical>
</notations>
<voice>1</voice>
<duration>480</duration>
<type>eighth</type>
</note>
<note>
<pitch>
<step>B</step>
<octave>6</octave>
</pitch>
<notations>
<technical>
<fret>19</fret>
<string>1</string>
</technical>
</notations>
<voice>1</voice>
<duration>480</duration>
<type>eighth</type>
<chord/>
</note>
<note>
<pitch>
<step>G</step>
<octave>3</octave>
</pitch>
<notations>
<technical>
<fret>3</fret>
<string>6</string>
</technical>
</notations>
<voice>1</voice>
<duration>480</duration>
<type>eighth</type>
</note>
<note>
<pitch>
<step>E</step>
<octave>4</octave>
</pitch>
<notations>
<technical>
<fret>2</fret>
<string>4</string>
</technical>
</notations>
<voice>1</voice>
<duration>360</duration>
<type>16th</type>
<dot/>
</note>
<note>
<pitch>
<step>G</step>
<octave>4</octave>
</pitch>
<notations>
<technical>
<fret>0</fret>
<string>3</string>
</technical>
</notations>
<voice>1</voice>
<duration>240</duration>
<type>16th</type>
</note>
<note>
<pitch>
<step>D</step>
<octave>5</octave>
</pitch>
<notations>
<technical>
<fret>3</fret>
<string>2</string>
</technical>
</notations>
<voice>1</voice>
<duration>160</duration>
<type>16th</type>
<time-modification>
<actual-notes>3</actual-notes>
<normal-notes>2</normal-notes>
</time-modification>
</note>
<note>
<pitch>
<step>B</step>
<octave>4</octave>
</pitch>
<notations>
<technical>
<fret>0</fret>
<string>2</string>
</technical>
</notations>
<voice>1</voice>
<duration>160</duration>
<type>16th</type>
<time-modification>
<actual-notes>3</actual-notes>
<normal-notes>2</normal-notes>
</time-modification>
</note>
<note>
<pitch>
<step>G</step>
<octave>4</octave>
</pitch>
<notations>
<technical>
<fret>0</fret>
<string>3</string>
</technical>
</notations>
<voice>1</voice>
<duration>160</duration>
<type>16th</type>
<time-modification>
<actual-notes>3</actual-notes>
<normal-notes>2</normal-notes>
</time-modification>
<chord/>
</note>
<note>
<pitch>
<step>E</step>
<octave>5</octave>
</pitch>
<notations>
<technical>
<fret>0</fret>
<string>1</string>
</technical>
</notations>
<voice>1</voice>
<duration>3840</duration>
<type>whole</type>
</note>
</measure>
<measure number="13">
<attributes>
<time>
<beats>4</beats>
<beat-type>4</beat-type>
</time>
</attributes>
<note>
<pitch>
<step>A</step>
<octave>6</octave>
</pitch>
<notations>
<technical>
<fret>17</fret>
<string>1</string>
</technical>
</notations>
<voice>1</voice>
<duration>960</duration>
<type>quarter</type>
</note>
<note>
<pitch>
<step>A</step>
<octave>4</octave>
</pitch>
<notations>
<technical>
<fret>2</fret>
<string>3</string>
</technical>
</notations>
<voice>1</voice>
<duration>960</duration>
<type>quarter</type>
<chord/>
</note>
<note>
<pitch>
<step>E</step>
<octave>4</octave>
</pitch>
<notations>
<technical>
<fret>2</fret>
<string>4</string>
</technical>
</notations>
<voice>1</voice>
<duration>960</duration>
<type>quarter</type>
<chord/>
</note>
<note>
<pitch>
<step>C</step>
<octave>4</octave>
</pitch>
<notations>
<technical>
<fret>3</fret>
<string>5</string>
</technical>
</notations>
<voice>1</voice>
<duration>960</duration>
<type>quarter</type>
<chord/>
</note>
<note>
<pitch>
<step>E</step>
<octave>6</octave>
</pitch>
<notations>
<technical>
<fret>12</fret>
<string>1</string>
</technical>
</notations>
<voice>1</voice>
<duration>2880</duration>
<type>half</type>
<dot/>
</note>
</measure>
<measure number="14">
<note>
<pitch>
<step>D</step>
<octave>6</octave>
</pitch>
<notations>
<technical>
<fret>10</fret>
<string>1</string>
</technical>
</notations>
<voice>1</voice>
<duration>960</duration>
<type>quarter</type>
</note>
<note>
<pitch>
<step>G</step>
<octave>4</octave>
</pitch>
<notations>
<technical>
<fret>0</fret>
<string>3</string>
</technical>
</notations>
<voice>1</voice>
<duration>960</duration>
<type>quarter</type>
<chord/>
</note>
<note>
<pitch>
<step>D</step>
<octave>4</octave>
</pitch>
<notations>
<technical>
<fret>0</fret>
<string>4</string>
</technical>
</notations>
<voice>1</voice>
<duration>960</duration>
<type>quarter</type>
<chord/>
</note>
<note>
<pitch>
<step>B</step>
<octave>3</octave>
</pitch>
<notations>
<technical>
<fret>2</fret>
<string>5</string>
</technical>
</notations>
<voice>1</voice>
<duration>960</duration>
<type>quarter</type>
<chord/>
</note>
<note>
<pitch>
<step>G</step>
<octave>6</octave>
</pitch>
<notations>
<technical>
<fret>15</fret>
<string>1</string>
</technical>
</notations>
<voice>1</voice>
<duration>2880</duration>
<type>half</type>
<dot/>
</note>
</measure>
<measure number="15">
<note>
<pitch>
<step>A</step>
<octave>6</octave>
</pitch>
<notations>
<technical>
<fret>17</fret>
<string>1</string>
</technical>
</notations>
<voice>1</voice>
<duration>960</duration>
<type>quarter</type>
</note>
<note>
<pitch>
<step>A</step>
<octave>4</octave>
</pitch>
<notations>
<technical>
<fret>2</fret>
<string>3</string>
</technical>
</notations>
<voice>1</voice>
<duration>960</duration>
<type>quarter</type>
<chord/>
</note>
<note>
<pitch>
<step>E</step>
<octave>4</octave>
</pitch>
<notations>
<technical>
<fret>2</fret>
<string>4</string>
</technical>
</notations>
<voice>1</voice>
<duration>960</duration>
<type>quarter</type>
<chord/>
</note>
<note>
<pitch>
<step>C</step>
<octave>4</octave>
</pitch>
<notations>
<technical>
<fret>3</fret>
<string>5</string>
</technical>
</notations>
<voice>1</voice>
<duration>960</duration>
<type>quarter</type>
<chord/>
</note>
<note>
<pitch>
<step>E</step>
<octave>6</octave>
</pitch>
<notations>
<technical>
<fret>12</fret>
<string>1</string>
</technical>
</notations>
<voice>1</voice>
<duration>2880</duration>
<type>half</type>
<dot/>
</note>
</measure>
<measure number="16">
<note>
<pitch>
<step>B</step>
<octave>6</octave>
</pitch>
<notations>
<technical>
<fret>19</fret>
<string>1</string>
</technical>
</notations>
<voice>1</voice>
<duration>960</duration>
<type>quarter</type>
</note>
<note>
<pitch>
<step>G</step>
<octave>4</octave>
</pitch>
<notations>
<technical>
<fret>0</fret>
<string>3</string>
</technical>
</notations>
<voice>1</voice>
<duration>960</duration>
<type>quarter</type>
<chord/>
</note>
<note>
<pitch>
<step>D</step>
<octave>4</octave>
</pitch>
<notations>
<technical>
<fret>0</fret>
<string>4</string>
</technical>
</notations>
<voice>1</voice>
<duration>960</duration>
<type>quarter</type>
<chord/>
</note>
<note>
<pitch>
<step>B</step>
<octave>3</octave>
</pitch>
<notations>
<technical>
<fret>2</fret>
<string>5</string>
</technical>
</notations>
<voice>1</voice>
<duration>960</duration>
<type>quarter</type>
<chord/>
</note>
<note>
<pitch>
<step>G</step>
<octave>6</octave>
</pitch>
<notations>
<technical>
<fret>15</fret>
<string>1</string>
</technical>
</notations>
<voice>1</voice>
<duration>2880</duration>
<type>half</type>
<dot/>
</note>
</measure>
<measure number="17">
<note>
<pitch>
<step>A</step>
<octave>6</octave>
</pitch>
<notations>
<technical>
<fret>17</fret>
<string>1</string>
</technical>
</notations>
<voice>1</voice>
<duration>960</duration>
<type>quarter</type>
</note>
<note>
<pitch>
<step>C</step>
<octave>4</octave>
</pitch>
<notations>
<technical>
<fret>3</fret>
<string>5</string>
</technical>
</notations>
<voice>1</voice>
<duration>960</duration>
<type>quarter</type>
<chord/>
</note>
<note>
<pitch>
<step>E</step>
<octave>4</octave>
</pitch>
<notations>
<technical>
<fret>2</fret>
<string>4</string>
</technical>
</notations>
<voice>1</voice>
<duration>960</duration>
<type>quarter</type>
<chord/>
</note>
<note>
<pitch>
<step>A</step>
<octave>4</octave>
</pitch>
<notations>
<technical>
<fret>2</fret>
<string>3</string>
</technical>
</notations>
<voice>1</voice>
<duration>960</duration>
<type>quarter</type>
<chord/>
</note>
<note>
<pitch>
<step>E</step>
<octave>6</octave>
</pitch>
<notations>
<technical>
<fret>12</fret>
<string>1</string>
</technical>
</notations>
<voice>1</voice>
<duration>2880</duration>
<type>half</type>
<dot/>
</note>
</measure>
<measure number="18">
<note>
<pitch>
<step>C</step>
<octave>7</octave>
</pitch>
<notations>
<technical>
<fret>20</fret>
<string>1</string>
</technical>
</notations>
<voice>1</voice>
<duration>960</duration>
<type>quarter</type>
</note>
<note>
<pitch>
<step>G</step>
<octave>4</octave>
</pitch>
<notations>
<technical>
<fret>0</fret>
<string>3</string>
</technical>
</notations>
<voice>1</voice>
<duration>960</duration>
<type>quarter</type>
<chord/>
</note>
<note>
<pitch>
<step>E</step>
<octave>4</octave>
</pitch>
<notations>
<technical>
<fret>2</fret>
<string>4</string>
</technical>
</notations>
<voice>1</voice>
<duration>960</duration>
<type>quarter</type>
<chord/>
</note>
<note>
<pitch>
<step>C</step>
<octave>4</octave>
</pitch>
<notations>
<technical>
<fret>3</fret>
<string>5</string>
</technical>
</notations>
<voice>1</voice>
<duration>960</duration>
<type>quarter</type>
<chord/>
</note>
<note>
<pitch>
<step>G</step>
<octave>6</octave>
</pitch>
<notations>
<technical>
<fret>15</fret>
<string>1</string>
</technical>
</notations>
<voice>1</voice>
<duration>2880</duration>
<type>half</type>
<dot/>
</note>
</measure>
<measure number="19">
<note>
<pitch>
<step>F</step>
<octave>6</octave>
</pitch>
<notations>
<technical>
<fret>13</fret>
<string>1</string>
</technical>
</notations>
<voice>1</voice>
<duration>960</duration>
<type>quarter</type>
</note>
<note>
<pitch>
<step>G</step>
<octave>4</octave>
</pitch>
<notations>
<technical>
<fret>0</fret>
<string>3</string>
</technical>
</notations>
<voice>1</voice>
<duration>960</duration>
<type>quarter</type>
<chord/>
</note>
<note>
<pitch>
<step>D</step>
<octave>4</octave>
</pitch>
<notations>
<technical>
<fret>0</fret>
<string>4</string>
</technical>
</notations>
<voice>1</voice>
<duration>960</duration>
<type>quarter</type>
<chord/>
</note>
<note>
<pitch>
<step>B</step>
<octave>3</octave>
</pitch>
<notations>
<technical>
<fret>2</fret>
<string>5</string>
</technical>
</notations>
<voice>1</voice>
<duration>960</duration>
<type>quarter</type>
<chord/>
</note>
<note>
<pitch>
<step>G</step>
<octave>6</octave>
</pitch>
<notations>
<technical>
<fret>15</fret>
<string>1</string>
</technical>
</notations>
<voice>1</voice>
<duration>2880</duration>
<type>half</type>
<dot/>
</note>
</measure>
</part>
</score-partwise>
